<svg width="178" height="33" viewBox="0 0 178 33" fill="none" xmlns="http://www.w3.org/2000/svg">
<path d="M22.3888 2.70697C22.53 2.38461 22.3838 2.00749 22.056 1.87935C20.2861 1.18742 18.3597 0.807617 16.3447 0.807617C7.67804 0.807617 0.652344 7.8333 0.652344 16.4999C0.652344 25.1665 7.67804 32.1922 16.3447 32.1922C18.3597 32.1922 20.2861 31.8124 22.056 31.1205C22.3838 30.9924 22.53 30.6152 22.3888 30.2929L18.5694 21.5768C18.428 21.2542 18.0525 21.1118 17.7142 21.21C17.2796 21.3361 16.82 21.4038 16.3447 21.4038C13.6363 21.4038 11.4408 19.2082 11.4408 16.4999C11.4408 13.7916 13.6363 11.5961 16.3447 11.5961C16.82 11.5961 17.2796 11.6637 17.7142 11.7899C18.0525 11.8881 18.428 11.7457 18.5694 11.4231L22.3888 2.70697Z" fill="#333333" fill-opacity="0.5"/>
<path d="M24.9849 28.7257C25.1462 29.0937 25.604 29.223 25.9219 28.9775C29.639 26.1079 32.0331 21.6079 32.0331 16.5487C32.0331 11.4896 29.639 6.98963 25.9219 4.11998C25.604 3.87449 25.1462 4.00382 24.9849 4.37175L23.8772 6.89973C23.7613 7.16418 23.8388 7.47215 24.0568 7.66152C26.54 9.81933 28.11 13.0007 28.11 16.5487C28.11 20.0968 26.54 23.2782 24.0568 25.436C23.8388 25.6253 23.7613 25.9333 23.8772 26.1978L24.9849 28.7257Z" fill="#333333" fill-opacity="0.5"/>
<path d="M22.0776 22.091C22.2553 22.4966 22.7819 22.6003 23.0688 22.2629C24.3779 20.7231 25.1677 18.7282 25.1677 16.5487C25.1677 14.3693 24.3779 12.3744 23.0688 10.8346C22.7819 10.4971 22.2553 10.6009 22.0776 11.0065L20.7886 13.9481C20.71 14.1274 20.7205 14.3319 20.8021 14.51C21.0862 15.1308 21.2446 15.8213 21.2446 16.5487C21.2446 17.2762 21.0862 17.9667 20.802 18.5875C20.7205 18.7656 20.71 18.9701 20.7886 19.1494L22.0776 22.091Z" fill="#333333" fill-opacity="0.5"/>
<path d="M48.0414 24.7559C46.3732 24.7559 44.8718 24.4061 43.5372 23.7066C42.2178 22.9918 41.1789 22.0033 40.4206 20.7411C39.6623 19.4789 39.2832 18.0494 39.2832 16.4526C39.2832 14.8559 39.6623 13.4264 40.4206 12.1642C41.1789 10.9019 42.2178 9.92107 43.5372 9.22153C44.8718 8.50679 46.3732 8.14941 48.0414 8.14941C49.4973 8.14941 50.8091 8.40794 51.9769 8.92499C53.1446 9.44204 54.1152 10.1872 54.8887 11.1605L52.0224 13.7609C50.9911 12.5139 49.7399 11.8904 48.2689 11.8904C47.4044 11.8904 46.631 12.0805 45.9485 12.4607C45.2812 12.8409 44.758 13.3808 44.3789 14.0803C44.0149 14.7646 43.8329 15.5554 43.8329 16.4526C43.8329 17.3499 44.0149 18.1483 44.3789 18.8478C44.758 19.5321 45.2812 20.0644 45.9485 20.4446C46.631 20.8248 47.4044 21.0149 48.2689 21.0149C49.7399 21.0149 50.9911 20.3913 52.0224 19.1443L54.8887 21.7448C54.1152 22.7181 53.1446 23.4632 51.9769 23.9803C50.8091 24.4973 49.4973 24.7559 48.0414 24.7559Z" fill="#333333" fill-opacity="0.5"/>
<path d="M67.7544 21.3342H61.0208L59.7697 24.4365H55.1745L62.2038 8.46877H66.6397L73.6918 24.4365H69.0056L67.7544 21.3342ZM66.435 18.0038L64.3876 12.8941L62.3402 18.0038H66.435Z" fill="#333333" fill-opacity="0.5"/>
<path d="M82.3847 20.1937H79.9279V24.4365H75.4237V8.46877H82.7032C84.1439 8.46877 85.3951 8.71209 86.4567 9.19872C87.5183 9.67015 88.3372 10.3545 88.9135 11.2517C89.4898 12.1337 89.778 13.1755 89.778 14.3768C89.778 15.5326 89.505 16.5439 88.959 17.4107C88.4282 18.2623 87.6624 18.9314 86.6614 19.4181L90.0965 24.4365H85.2738L82.3847 20.1937ZM85.2283 14.3768C85.2283 13.6317 84.9932 13.0538 84.5231 12.6432C84.0529 12.2326 83.3553 12.0273 82.4302 12.0273H79.9279V16.7036H82.4302C83.3553 16.7036 84.0529 16.5059 84.5231 16.1105C84.9932 15.6999 85.2283 15.122 85.2283 14.3768Z" fill="#333333" fill-opacity="0.5"/>
<path d="M98.314 24.7559C97.0249 24.7559 95.7738 24.5962 94.5605 24.2768C93.3472 23.9575 92.3615 23.5317 91.6032 22.9994L93.0818 19.669C93.7946 20.1404 94.6212 20.5206 95.5614 20.8096C96.5017 21.0985 97.4268 21.243 98.3368 21.243C100.066 21.243 100.93 20.8096 100.93 19.9427C100.93 19.4865 100.68 19.1519 100.179 18.939C99.6941 18.7109 98.9055 18.4752 97.8135 18.2319C96.6155 17.9734 95.6145 17.6996 94.8107 17.4107C94.007 17.1066 93.3169 16.6275 92.7406 15.9736C92.1643 15.3197 91.8762 14.4377 91.8762 13.3275C91.8762 12.3543 92.1416 11.4798 92.6724 10.7043C93.2032 9.91347 93.9918 9.28997 95.0382 8.83375C96.0998 8.37752 97.3965 8.14941 98.9282 8.14941C99.9746 8.14941 101.006 8.27107 102.022 8.51439C103.038 8.7425 103.933 9.08467 104.706 9.54089L103.319 12.8941C101.802 12.0729 100.331 11.6623 98.9055 11.6623C98.0107 11.6623 97.3586 11.7992 96.9491 12.0729C96.5396 12.3314 96.3349 12.6736 96.3349 13.0994C96.3349 13.5252 96.5775 13.8446 97.0628 14.0575C97.5481 14.2704 98.3292 14.4909 99.4059 14.719C100.619 14.9775 101.62 15.2589 102.409 15.563C103.213 15.8519 103.903 16.3234 104.479 16.9773C105.07 17.616 105.366 18.4904 105.366 19.6006C105.366 20.5586 105.101 21.4255 104.57 22.201C104.039 22.9766 103.243 23.6001 102.181 24.0715C101.12 24.5278 99.8306 24.7559 98.314 24.7559Z" fill="#333333" fill-opacity="0.5"/>
<path d="M115.841 24.7559C114.173 24.7559 112.671 24.4061 111.337 23.7066C110.017 22.9918 108.978 22.0033 108.22 20.7411C107.462 19.4789 107.083 18.0494 107.083 16.4526C107.083 14.8559 107.462 13.4264 108.22 12.1642C108.978 10.9019 110.017 9.92107 111.337 9.22153C112.671 8.50679 114.173 8.14941 115.841 8.14941C117.297 8.14941 118.609 8.40794 119.776 8.92499C120.944 9.44204 121.915 10.1872 122.688 11.1605L119.822 13.7609C118.791 12.5139 117.539 11.8904 116.068 11.8904C115.204 11.8904 114.43 12.0805 113.748 12.4607C113.081 12.8409 112.557 13.3808 112.178 14.0803C111.814 14.7646 111.632 15.5554 111.632 16.4526C111.632 17.3499 111.814 18.1483 112.178 18.8478C112.557 19.5321 113.081 20.0644 113.748 20.4446C114.43 20.8248 115.204 21.0149 116.068 21.0149C117.539 21.0149 118.791 20.3913 119.822 19.1443L122.688 21.7448C121.915 22.7181 120.944 23.4632 119.776 23.9803C118.609 24.4973 117.297 24.7559 115.841 24.7559Z" fill="#333333" fill-opacity="0.5"/>
<path d="M132.848 24.7559C131.165 24.7559 129.648 24.3985 128.299 23.6837C126.964 22.969 125.91 21.9805 125.137 20.7183C124.378 19.4561 123.999 18.0342 123.999 16.4526C123.999 14.8711 124.378 13.4492 125.137 12.187C125.91 10.9248 126.964 9.93628 128.299 9.22153C129.648 8.50679 131.165 8.14941 132.848 8.14941C134.532 8.14941 136.041 8.50679 137.375 9.22153C138.725 9.93628 139.779 10.9248 140.537 12.187C141.311 13.4492 141.698 14.8711 141.698 16.4526C141.698 18.0342 141.311 19.4561 140.537 20.7183C139.779 21.9805 138.725 22.969 137.375 23.6837C136.041 24.3985 134.532 24.7559 132.848 24.7559ZM132.848 21.0149C133.652 21.0149 134.38 20.8248 135.032 20.4446C135.684 20.0644 136.2 19.5321 136.579 18.8478C136.958 18.1483 137.148 17.3499 137.148 16.4526C137.148 15.5554 136.958 14.7646 136.579 14.0803C136.2 13.3808 135.684 12.8409 135.032 12.4607C134.38 12.0805 133.652 11.8904 132.848 11.8904C132.045 11.8904 131.317 12.0805 130.665 12.4607C130.012 12.8409 129.497 13.3808 129.118 14.0803C128.738 14.7646 128.549 15.5554 128.549 16.4526C128.549 17.3499 128.738 18.1483 129.118 18.8478C129.497 19.5321 130.012 20.0644 130.665 20.4446C131.317 20.8248 132.045 21.0149 132.848 21.0149Z" fill="#333333" fill-opacity="0.5"/>
<path d="M151.859 24.7559C149.494 24.7559 147.651 24.1096 146.332 22.8169C145.027 21.5243 144.375 19.6918 144.375 17.3195V8.46877H148.879V17.1826C148.879 19.7374 149.888 21.0149 151.905 21.0149C153.907 21.0149 154.908 19.7374 154.908 17.1826V8.46877H159.344V17.3195C159.344 19.6918 158.684 21.5243 157.365 22.8169C156.06 24.1096 154.225 24.7559 151.859 24.7559Z" fill="#333333" fill-opacity="0.5"/>
<path d="M170.129 8.46877C171.57 8.46877 172.821 8.71209 173.883 9.19872C174.945 9.67015 175.764 10.3545 176.34 11.2517C176.916 12.1337 177.204 13.1755 177.204 14.3768C177.204 15.5782 176.916 16.6199 176.34 17.5019C175.764 18.384 174.945 19.0683 173.883 19.5549C172.821 20.0264 171.57 20.2621 170.129 20.2621H167.354V24.4365H162.85V8.46877H170.129ZM169.857 16.7036C170.782 16.7036 171.479 16.5059 171.949 16.1105C172.419 15.6999 172.655 15.122 172.655 14.3768C172.655 13.6317 172.419 13.0538 171.949 12.6432C171.479 12.2326 170.782 12.0273 169.857 12.0273H167.354V16.7036H169.857Z" fill="#333333" fill-opacity="0.5"/>
</svg>
