<svg width="190" height="49" viewBox="0 0 190 49" fill="none" xmlns="http://www.w3.org/2000/svg">
<g clip-path="url(#clip0_157_262)">
<path d="M60.7835 31.5808C58.0468 31.5808 56.4424 29.4417 56.4424 27.0194C56.4424 24.2198 58.267 22.3637 60.7835 22.3637C62.1048 22.3637 62.9856 22.8985 63.8035 23.4018L65.1247 21.0426C64.181 20.4449 62.6081 19.7213 60.9408 19.7213C56.5997 19.7213 53.4854 22.8041 53.4854 27.0194C53.4854 31.2033 56.6626 34.3177 60.9408 34.3177C62.7654 34.3177 64.0867 33.5627 65.1247 32.9335L63.8035 30.5742C62.9856 31.1404 61.7587 31.5808 60.7835 31.5808ZM70.0635 13.2725H72.8633V33.9402H70.0635V13.2725ZM89.0011 20.1617L88.6865 21.3572C87.9316 20.5392 86.3272 19.7213 84.6284 19.7213C81.1681 19.7213 77.9909 22.4581 77.9909 26.9251C77.9909 31.5493 81.1681 34.3491 84.6284 34.3491C86.3272 34.3491 87.8687 33.5312 88.6865 32.7133L89.0011 33.9716H91.3604V20.2561H89.0011V20.1617ZM88.7494 27.1138C88.7494 30.2597 86.8305 31.6752 85.0059 31.6752C83.15 31.6752 81.0108 30.4169 81.0108 26.9565C81.0108 24.7545 82.1748 22.3952 84.7857 22.3952C86.7676 22.3952 88.7494 23.9995 88.7494 26.9565V27.1138ZM101.364 28.2149C103.283 28.7182 104.101 29.0957 104.101 30.0709C104.101 30.8259 103.44 31.6123 101.899 31.6123C100.483 31.6123 99.3192 31.109 98.2182 30.5113L96.9599 32.8706C97.9351 33.4683 100.106 34.2862 101.899 34.2862C104.982 34.2862 106.774 32.21 106.774 30.1024C106.774 26.4847 103.22 25.9185 102.276 25.6039C100.294 25.0691 99.7911 24.6602 99.7911 23.8423C99.7911 22.9614 100.546 22.3637 101.993 22.3637C103.251 22.3637 104.195 22.7412 105.076 23.1816L106.397 20.8224C105.139 20.2876 103.66 19.7213 101.993 19.7213C98.9731 19.7213 97.1487 21.8604 97.1487 23.8423C97.1487 27.0194 99.8225 27.8374 101.364 28.2149ZM116.369 28.2149C118.288 28.7182 119.106 29.0957 119.106 30.0709C119.106 30.8259 118.445 31.6123 116.904 31.6123C115.488 31.6123 114.324 31.109 113.223 30.5113L111.965 32.8706C112.94 33.4683 115.111 34.2862 116.904 34.2862C119.987 34.2862 121.78 32.21 121.78 30.1024C121.78 26.4847 118.225 25.9185 117.282 25.6039C115.299 25.0691 114.796 24.6602 114.796 23.8423C114.796 22.9614 115.551 22.3637 116.998 22.3637C118.257 22.3637 119.2 22.7412 120.082 23.1816L121.403 20.8224C120.144 20.2876 118.666 19.7213 116.998 19.7213C113.979 19.7213 112.154 21.8604 112.154 23.8423C112.122 27.0194 114.828 27.8374 116.369 28.2149ZM133.922 19.7213C132.224 19.7213 130.683 20.5392 129.865 21.3572L129.55 20.0988H127.191V39.634H129.833V32.8391L129.928 32.7762C130.683 33.5941 132.224 34.2548 133.703 34.2548C137.257 34.2548 140.56 31.9583 140.56 26.8307C140.623 22.2379 137.446 19.7213 133.922 19.7213ZM133.608 31.6752C131.784 31.6752 129.865 30.2597 129.865 27.1138V26.9565C129.865 23.9366 131.846 22.3952 133.829 22.3952C136.47 22.3952 137.604 24.7545 137.604 26.9565C137.604 30.4169 135.464 31.6752 133.608 31.6752ZM156.227 20.1617L155.912 21.4201C155.157 20.6022 153.553 19.7842 151.854 19.7842C148.393 19.7842 145.216 22.521 145.216 26.988C145.216 31.6123 148.393 34.4121 151.854 34.4121C153.553 34.4121 155.093 33.5941 155.912 32.7762L156.227 34.0346H158.586V20.319H156.227V20.1617ZM155.943 27.1138C155.943 30.2597 154.024 31.6752 152.199 31.6752C150.343 31.6752 148.205 30.4169 148.205 26.9565C148.205 24.7545 149.368 22.3952 151.98 22.3952C153.961 22.3952 155.943 23.9995 155.943 26.9565V27.1138ZM168.589 28.2149C170.508 28.7182 171.326 29.0957 171.326 30.0709C171.326 30.8259 170.665 31.6123 169.123 31.6123C167.708 31.6123 166.544 31.109 165.443 30.5113L164.185 32.8706C165.16 33.4683 167.331 34.2862 169.123 34.2862C172.207 34.2862 173.999 32.21 173.999 30.1024C173.999 26.4847 170.445 25.9185 169.502 25.6039C167.519 25.0691 167.016 24.6602 167.016 23.8423C167.016 22.9614 167.771 22.3637 169.218 22.3637C170.477 22.3637 171.42 22.7412 172.302 23.1816L173.622 20.8224C172.364 20.2876 170.886 19.7213 169.218 19.7213C166.198 19.7213 164.373 21.8604 164.373 23.8423C164.342 27.0194 167.047 27.8374 168.589 28.2149ZM183.563 28.2149C185.482 28.7182 186.299 29.0957 186.299 30.0709C186.299 30.8259 185.639 31.6123 184.097 31.6123C182.682 31.6123 181.518 31.109 180.417 30.5113L179.159 32.8706C180.134 33.4683 182.305 34.2862 184.097 34.2862C187.181 34.2862 188.973 32.21 188.973 30.1024C188.973 26.4847 185.419 25.9185 184.476 25.6039C182.493 25.0691 181.99 24.6602 181.99 23.8423C181.99 22.9614 182.745 22.3637 184.192 22.3637C185.451 22.3637 186.394 22.7412 187.274 23.1816L188.596 20.8224C187.338 20.2876 185.859 19.7213 184.192 19.7213C181.172 19.7213 179.347 21.8604 179.347 23.8423C179.347 27.0194 182.053 27.8374 183.563 28.2149Z" fill="#333333" fill-opacity="0.5"/>
<path d="M29.4798 8.90039H24.4151C23.5344 8.90039 22.6535 9.56091 22.5591 10.4417L21.8041 14.0595C21.7098 14.72 21.1435 15.1604 20.4829 15.1604H14.8835C7.30217 15.2548 0.287109 20.9801 0.287109 29.0961C0.287109 36.3314 6.32698 42.9376 15.0093 42.9376H20.7346C21.6154 42.9376 22.4962 42.277 22.5906 41.3961L23.3456 37.7785C23.44 37.1179 24.0062 36.6775 24.6668 36.6775H29.6056C38.0678 36.6775 44.3278 30.1972 44.3278 22.8361C44.202 14.72 37.2813 8.90039 29.4798 8.90039ZM29.3539 31.2982H23.4085C22.5277 31.2982 21.7727 31.9588 21.5525 32.8397L20.7975 36.3629C20.7031 37.0235 20.1369 37.4639 19.4763 37.4639H15.0722C10.5738 37.4639 5.72929 34.2866 5.72929 29.0018C5.72929 24.1573 10.0075 20.5397 15.0722 20.5397H21.8671C22.7479 20.5397 23.5029 19.879 23.7231 18.9983L24.478 15.475C24.5724 14.8143 25.1386 14.3739 25.7993 14.3739H29.3225C34.0411 14.3739 38.6654 17.6771 38.6654 22.8361C38.6025 27.5548 34.5445 31.2982 29.3539 31.2982Z" fill="#333333" fill-opacity="0.5"/>
</g>
<defs>
<clipPath id="clip0_157_262">
<rect width="189" height="48" fill="white" transform="translate(0.207031 0.5)"/>
</clipPath>
</defs>
</svg>
