<svg width="26" height="26" viewBox="0 0 26 26" fill="none" xmlns="http://www.w3.org/2000/svg">
<g clip-path="url(#clip0_464_241)">
<path d="M10.1564 3.65625C10.1564 3.09381 10.3232 2.544 10.6357 2.07635C10.9481 1.6087 11.3923 1.24421 11.9119 1.02897C12.4315 0.813732 13.0033 0.757416 13.5549 0.867143C14.1066 0.97687 14.6133 1.24771 15.011 1.64542C15.4087 2.04312 15.6795 2.54983 15.7893 3.10146C15.899 3.6531 15.8427 4.22488 15.6274 4.74451C15.4122 5.26413 15.0477 5.70827 14.58 6.02074C14.1124 6.33322 13.5626 6.5 13.0001 6.5C12.2459 6.5 11.5226 6.20039 10.9893 5.66709C10.456 5.13378 10.1564 4.41046 10.1564 3.65625ZM21.8787 14.298L17.283 9.08781C17.0162 8.78521 16.688 8.54286 16.3203 8.37686C15.9525 8.21086 15.5537 8.125 15.1502 8.125H10.8501C10.4466 8.125 10.0478 8.21086 9.68004 8.37686C9.31231 8.54286 8.98412 8.78521 8.71726 9.08781L4.12155 14.298C3.82314 14.6033 3.65687 15.0138 3.65871 15.4408C3.66054 15.8677 3.83032 16.2768 4.13135 16.5795C4.43237 16.8823 4.84046 17.0544 5.26738 17.0587C5.6943 17.063 6.10576 16.8991 6.4128 16.6024L9.03921 14.493L7.03843 22.098C6.86436 22.4887 6.8514 22.9324 7.00237 23.3327C7.15334 23.7329 7.45606 24.0575 7.84484 24.236C8.23362 24.4145 8.6771 24.4325 9.07905 24.286C9.481 24.1396 9.809 23.8406 9.99186 23.4538L13.0001 18.2812L16.0044 23.4609C16.1872 23.8477 16.5152 24.1467 16.9172 24.2931C17.3191 24.4396 17.7626 24.4216 18.1514 24.2431C18.5402 24.0646 18.8429 23.74 18.9939 23.3398C19.1448 22.9395 19.1319 22.4959 18.9578 22.1051L16.9611 14.493L19.5916 16.6024C19.8986 16.8991 20.3101 17.063 20.737 17.0587C21.1639 17.0544 21.572 16.8823 21.873 16.5795C22.174 16.2768 22.3438 15.8677 22.3456 15.4408C22.3475 15.0138 22.1812 14.6033 21.8828 14.298H21.8787Z" fill="#0C0C0C"/>
</g>
<defs>
<clipPath id="clip0_464_241">
<rect width="26" height="26" fill="white"/>
</clipPath>
</defs>
</svg>
