<svg width="26" height="26" viewBox="0 0 26 26" fill="none" xmlns="http://www.w3.org/2000/svg">
<g clip-path="url(#clip0_464_247)">
<path d="M20.1612 5.69664C18.9353 3.59531 17.2575 2.4375 15.4375 2.4375H10.5625C8.7425 2.4375 7.06469 3.59531 5.83883 5.69664C4.6932 7.65984 4.0625 10.2578 4.0625 13C4.0625 15.7422 4.6932 18.3402 5.83883 20.3034C7.06469 22.4047 8.7425 23.5625 10.5625 23.5625H15.4375C17.2575 23.5625 18.9353 22.4047 20.1612 20.3034C21.3068 18.3402 21.9375 15.7422 21.9375 13C21.9375 10.2578 21.3068 7.65984 20.1612 5.69664ZM20.2912 12.1875H17.0412C16.9777 10.5202 16.6457 8.87407 16.058 7.3125H19.1648C19.7864 8.67141 20.1967 10.3594 20.2912 12.1875ZM18.199 5.6875H15.2811C14.9417 5.09876 14.5325 4.55315 14.0623 4.0625H15.4375C16.4531 4.0625 17.4078 4.67188 18.199 5.6875ZM15.4375 21.9375H14.0654C14.5356 21.4469 14.9448 20.9012 15.2841 20.3125H18.202C17.4078 21.3281 16.4531 21.9375 15.4375 21.9375ZM19.1648 18.6875H16.0591C16.6467 17.1259 16.9787 15.4798 17.0422 13.8125H20.2922C20.1967 15.6406 19.7864 17.3286 19.1648 18.6875Z" fill="#0C0C0C"/>
</g>
<defs>
<clipPath id="clip0_464_247">
<rect width="26" height="26" fill="white"/>
</clipPath>
</defs>
</svg>
