<svg width="121" height="32" viewBox="0 0 121 32" fill="none" xmlns="http://www.w3.org/2000/svg">
<circle cx="117.896" cy="20.2824" r="2.50504" fill="white"/>
<path d="M57.3974 22.7871H54.3278V12.4836L50.2922 22.7871H48.9614L44.9258 12.4836V22.7871H41.8777V8.46949H46.1493L49.6268 17.3992L53.1042 8.46949H57.3974V22.7871ZM73.8716 22.7871H70.5444L69.6429 20.3186H63.2461L62.3445 22.7871H58.9959L64.534 8.46949H68.3549L73.8716 22.7871ZM68.8057 17.6783L66.4445 11.1098L64.0618 17.6783H68.8057ZM78.521 22.7871H75.4728V8.46949H82.1701C85.2827 8.46949 86.9784 10.5731 86.9784 13.0846C86.9784 15.5746 85.2612 17.6568 82.1701 17.6568H78.521V22.7871ZM83.8659 13.0631C83.8659 11.8825 82.9644 11.0883 81.7623 11.0883H78.521V15.038H81.7623C82.9644 15.038 83.8659 14.2652 83.8659 13.0631ZM98.2484 22.7871H89.147V8.46949H92.1951V20.1039H98.2484V22.7871ZM110.794 22.7871H100.662V8.46949H110.794V11.0883H103.71V14.2008H110.644V16.8196H103.71V20.1468H110.794V22.7871Z" fill="white"/>
<path fill-rule="evenodd" clip-rule="evenodd" d="M15.0712 0.0471277C14.9621 -0.0157091 14.8278 -0.0157093 14.7187 0.0471275L1.13774 7.87096C1.02835 7.93397 0.960938 8.0506 0.960938 8.17684V23.8232C0.960938 23.9494 1.02835 24.066 1.13774 24.129L14.7187 31.9529C14.8278 32.0157 14.9621 32.0157 15.0712 31.9529L28.6521 24.129C28.7615 24.066 28.8289 23.9494 28.8289 23.8232V8.17684C28.8289 8.0506 28.7615 7.93397 28.6521 7.87096L15.0712 0.0471277ZM15.072 7.31825C14.9625 7.25472 14.8274 7.25472 14.7178 7.31825L7.49801 11.5057C7.44353 11.5373 7.39954 11.5823 7.36917 11.635L14.8952 16.0001V24.7294C14.9563 24.7293 15.0174 24.7135 15.072 24.6818L22.2919 20.4943C22.4007 20.4311 22.4678 20.3148 22.4678 20.1889V11.8111C22.4678 11.6852 22.4007 11.5689 22.2919 11.5057L15.072 7.31825Z" fill="white"/>
</svg>
