<svg width="169" height="49" viewBox="0 0 169 49" fill="none" xmlns="http://www.w3.org/2000/svg">
<path d="M166.803 20.837C167.791 21.885 168.288 23.306 168.288 25.1063V34.577H164.623V26.18C164.623 25.1191 164.324 24.2833 163.725 23.6725C163.126 23.0617 162.316 22.753 161.29 22.753C160.079 22.7723 159.116 23.1902 158.409 24.0004C157.701 24.8105 157.345 25.8521 157.345 27.1187V34.577H153.705V13.533H157.345V22.2965C158.371 20.3098 160.174 19.3004 162.749 19.2618C164.458 19.2618 165.815 19.7826 166.803 20.837ZM145.61 22.5216C144.399 22.5216 143.411 22.9395 142.659 23.7689C141.907 24.6048 141.525 25.6785 141.525 27.003C141.525 28.3661 141.907 29.4591 142.659 30.2949C143.418 31.1243 144.399 31.5423 145.617 31.5423C147.408 31.5423 148.753 30.9443 149.651 29.7548L151.92 31.658C151.251 32.6417 150.333 33.4261 149.263 33.9276C148.16 34.4549 146.885 34.7185 145.426 34.7185C143.953 34.7185 142.64 34.397 141.493 33.754C140.365 33.1304 139.434 32.1852 138.822 31.0472C138.185 29.8834 137.866 28.5461 137.866 27.0351C137.866 25.5049 138.191 24.1483 138.835 22.9781C139.453 21.8272 140.39 20.8885 141.525 20.2584C142.672 19.6154 143.992 19.2939 145.489 19.2939C146.853 19.2939 148.071 19.5318 149.142 20.014C150.212 20.4963 151.086 21.1842 151.761 22.0715L149.549 24.1997C148.523 23.0809 147.217 22.5216 145.61 22.5216ZM135.54 19.4032V34.577H131.9V32.1659C131.384 32.9761 130.664 33.6383 129.816 34.0819C128.969 34.5256 127.993 34.7506 126.891 34.7506C125.469 34.7506 124.226 34.4227 123.149 33.7733C122.079 33.1239 121.237 32.2045 120.644 31.0215C120.052 29.8384 119.752 28.4818 119.752 26.9515C119.752 25.4406 120.052 24.1032 120.651 22.9395C121.244 21.7757 122.085 20.8756 123.156 20.2326C124.226 19.5897 125.463 19.2682 126.865 19.2682C127.968 19.2682 128.949 19.4932 129.804 19.9369C130.658 20.3805 131.384 21.0363 131.9 21.8529V19.4161L135.54 19.4032ZM130.581 30.5328C131.346 29.787 131.786 28.7968 131.9 27.5688V26.495C131.786 25.2606 131.352 24.2768 130.588 23.531C129.823 22.7852 128.854 22.4123 127.675 22.4123C126.425 22.4123 125.406 22.8431 124.622 23.7046C123.838 24.5662 123.436 25.6785 123.417 27.0351C123.436 28.3982 123.838 29.5041 124.622 30.3657C125.406 31.2272 126.425 31.658 127.675 31.658C128.847 31.658 129.816 31.2851 130.581 30.5328ZM116.087 21.3578C117.292 22.7402 117.891 24.6755 117.891 27.1702C117.891 27.6588 117.878 28.0317 117.865 28.276H106.807C107.049 29.3562 107.546 30.1985 108.305 30.8157C109.057 31.433 109.988 31.7352 111.09 31.7352C111.842 31.7352 112.594 31.5873 113.289 31.2915C113.984 31.0086 114.608 30.5778 115.125 30.0313L117.082 32.1016C116.323 32.9439 115.392 33.5997 114.347 34.0305C113.276 34.487 112.084 34.712 110.778 34.712C109.248 34.712 107.897 34.3906 106.731 33.7476C105.59 33.1304 104.646 32.1852 104.028 31.0408C103.391 29.877 103.078 28.5397 103.078 27.0287C103.078 25.5178 103.397 24.174 104.047 23.0038C104.672 21.8529 105.609 20.9013 106.75 20.2648C107.91 19.609 109.223 19.2875 110.695 19.2875C113.085 19.2875 114.883 19.9819 116.087 21.3578ZM114.564 25.8135C114.526 24.6948 114.162 23.8075 113.474 23.1452C112.786 22.483 111.868 22.1487 110.727 22.1487C109.662 22.1487 108.77 22.4766 108.05 23.1259C107.33 23.7753 106.89 24.6691 106.718 25.8071H114.564V25.8135ZM99.1203 20.0719C99.9871 19.5511 101.001 19.2811 102.161 19.2618V22.8366C100.612 22.7402 99.3752 23.1067 98.451 23.9296C97.5268 24.7526 97.0615 25.8649 97.0615 27.2602V34.577H93.4221V19.4032H97.0615V22.3223C97.5714 21.3385 98.2534 20.5863 99.1203 20.0719ZM90.6942 33.6383C89.5023 34.3777 88.2466 34.7442 86.94 34.7442C85.6525 34.7442 84.5945 34.3584 83.7786 33.5933C82.9564 32.8282 82.5485 31.6966 82.5485 30.2049V15.8541L86.1624 15.4169V20.0205H90.4456V22.7145H86.1624V29.5555C86.1624 30.2563 86.2899 30.7514 86.5512 31.0408C86.8125 31.3365 87.2013 31.478 87.724 31.478C88.2849 31.478 88.9924 31.2722 89.8528 30.8543L90.6942 33.6383ZM75.8051 19.4032H79.419V27.9096C79.419 32.8732 75.9963 34.7185 72.5226 34.7185C69.0489 34.7185 65.6325 32.8732 65.6325 27.9096V19.4032H69.2465V28.0381C69.2465 29.9413 70.6487 31.4844 72.5289 31.4844C74.4092 31.4844 75.8114 29.9413 75.8114 28.0381L75.8051 19.4032ZM58.1434 15.8027C59.7049 16.6578 61.0052 17.9244 61.9103 19.4611C62.8281 21.0106 63.2806 22.7337 63.2806 24.624C63.2806 26.5143 62.8217 28.2375 61.9103 29.7998C61.0052 31.3494 59.7049 32.6289 58.1434 33.5033C56.5436 34.4099 54.778 34.8664 52.834 34.8664C50.89 34.8664 49.1245 34.4099 47.5311 33.5033C45.9695 32.6289 44.6692 31.3494 43.7642 29.7998C42.8527 28.2375 42.3938 26.5143 42.3938 24.624C42.3938 22.7337 42.8527 21.0106 43.7642 19.4611C44.6692 17.918 45.9695 16.6578 47.5311 15.8027C49.1245 14.9154 50.8964 14.4717 52.834 14.4717C54.778 14.4653 56.5499 14.909 58.1434 15.8027ZM49.5643 18.7667C48.5509 19.3454 47.7095 20.1876 47.1295 21.2035C46.5304 22.2387 46.2308 23.3767 46.2308 24.624C46.2308 25.8714 46.5368 27.0158 47.1423 28.0574C47.7286 29.0797 48.57 29.9284 49.577 30.5264C50.5968 31.1308 51.6995 31.433 52.8978 31.433C54.0514 31.4394 55.1859 31.1243 56.1739 30.5264C57.1746 29.9284 57.9968 29.0797 58.5704 28.0574C59.1632 27.0094 59.4627 25.8264 59.45 24.624C59.45 23.3767 59.1568 22.2387 58.5704 21.2035C58.0032 20.1941 57.1746 19.3518 56.1739 18.7667C55.1796 18.1752 54.0514 17.8666 52.8978 17.873C51.725 17.8666 50.5777 18.1752 49.5643 18.7667ZM14.9675 5.95898C20.1239 5.95898 27.9126 7.55995 31.5329 11.2312C32.4508 12.1635 33.6554 13.9831 33.6554 16.6578C33.6554 21.4028 29.8758 28.6875 25.7073 32.9182C23.553 35.1042 20.1239 37.959 15.5093 37.959C10.9967 37.959 7.55486 34.8599 6.56055 33.8441C2.7363 29.9734 0.00195312 24.0968 0.00195312 18.6252C0.00195312 15.1661 0.977138 12.1442 3.45653 9.63027C5.75108 7.3092 9.70919 5.95898 14.9675 5.95898ZM21.3477 24.8941C23.0877 23.1324 23.5594 20.9592 23.5594 19.7633C23.5594 18.8953 23.3363 17.6287 22.2655 16.5421C20.6274 14.8768 18.8045 14.4074 16.8287 14.4074C14.3238 14.4074 12.6411 15.2111 11.5193 16.3427C10.6398 17.2429 9.88128 18.606 9.88128 20.5541C9.88128 22.4959 10.9075 24.3733 12.0165 25.5049C13.049 26.5465 14.668 27.318 16.2933 27.318C17.925 27.318 19.6076 26.6558 21.3477 24.8941Z" fill="#333333" fill-opacity="0.5"/>
</svg>
