<svg width="165" height="31" viewBox="0 0 165 31" fill="none" xmlns="http://www.w3.org/2000/svg">
<g clip-path="url(#clip0_157_271)">
<path d="M31.2102 15.5583C31.6217 14.9379 32.4194 14.672 33.0967 15.0645C33.7108 15.4254 34.002 16.3306 33.6032 16.9384C33.0967 17.698 32.489 18.4134 31.8623 19.0781C29.6276 21.4331 26.4053 23.4146 23.0501 22.4713C20.1444 21.6547 18.2832 19.0908 16.9474 16.4003C16.3017 17.6601 15.5484 18.8629 14.5988 19.9201C13.4656 21.1862 11.9589 22.2054 10.2623 22.4903C8.48344 22.7878 6.7362 22.3573 5.17888 21.4711C3.25438 20.3759 1.55146 18.6666 0.323324 16.8244C-0.0944939 16.204 0.203043 15.2988 0.817109 14.9379C1.48815 14.5454 2.29214 14.8113 2.70362 15.4317C2.79225 15.5646 2.88721 15.6913 2.98217 15.8179C2.96318 15.7925 2.96951 15.8115 3.03281 15.8875C3.03457 15.8893 3.03682 15.8915 3.03928 15.8941C3.03923 15.894 3.03919 15.8939 3.03914 15.8938C3.0518 15.9065 3.05814 15.9191 3.07713 15.9381L3.30503 16.223C3.48862 16.4383 3.67853 16.6535 3.86845 16.8624C4.2926 17.3182 4.74207 17.755 5.21686 18.1538C5.29283 18.2235 5.37513 18.2868 5.4511 18.3501C5.45743 18.3628 5.46376 18.3628 5.47009 18.3691C5.58404 18.4577 5.69799 18.54 5.81827 18.6223C6.09681 18.8186 6.38169 18.9958 6.67923 19.1604C6.85014 19.2554 7.02105 19.3376 7.19196 19.4199L7.19201 19.42C7.20467 19.4263 7.2743 19.4579 7.31862 19.4769C7.36293 19.4959 7.43257 19.5212 7.45156 19.5276C7.75543 19.6289 8.05929 19.7238 8.37582 19.7871C8.40114 19.7935 8.64804 19.8251 8.61639 19.8251C8.64804 19.8251 8.67969 19.8314 8.71135 19.8314C8.88227 19.8378 9.05319 19.8504 9.23045 19.8441C9.31907 19.8441 9.40768 19.8378 9.4963 19.8314L9.49634 19.8314C9.51533 19.8314 9.60396 19.8188 9.6546 19.8125C9.72424 19.7935 9.93948 19.7491 9.99645 19.7365C10.199 19.6858 10.4016 19.6162 10.6042 19.5402C10.6548 19.5149 10.7814 19.4643 10.8258 19.439C11.1106 19.287 11.3828 19.1161 11.6487 18.9262C11.6614 18.9135 11.6677 18.9135 11.6741 18.9072C11.6867 18.9009 11.6994 18.8882 11.7184 18.8692C11.7817 18.8122 11.8513 18.7552 11.9146 18.6983C12.0539 18.5843 12.1805 18.4577 12.3071 18.3311C12.5603 18.0779 12.7946 17.812 13.0161 17.5334C13.415 17.0333 13.9784 16.1154 14.3582 15.4064C14.833 14.5264 15.2382 13.6212 15.6053 12.6969C15.7256 12.2727 16.0738 11.8929 16.4726 11.741C16.4916 11.7283 16.5106 11.722 16.5296 11.7157L16.5296 11.7156C16.5486 11.7093 16.5613 11.703 16.5803 11.6967C16.6056 11.6903 16.6372 11.6903 16.6626 11.684C16.7132 11.6713 16.7702 11.665 16.8208 11.6587C16.8588 11.6523 16.8968 11.6523 16.9348 11.6523C16.9854 11.6523 17.0424 11.6523 17.093 11.6587C17.131 11.665 17.1627 11.6713 17.2007 11.6777C17.2386 11.684 17.2766 11.684 17.3146 11.6967C17.7641 11.8169 18.1629 12.2284 18.2958 12.6969C19.0365 14.5707 20.0304 16.6472 21.2586 18.0526C21.5181 18.3438 21.7903 18.6223 22.0815 18.8819C22.1195 18.9072 22.3474 19.0908 22.3601 19.1034C22.474 19.1857 22.5943 19.268 22.7146 19.344C22.8665 19.4389 23.0248 19.5212 23.183 19.6035L23.1831 19.6035C23.2464 19.6352 23.2717 19.6542 23.2843 19.6605C23.297 19.6669 23.3223 19.6732 23.3666 19.6858C23.5502 19.7491 23.7275 19.8125 23.9111 19.8568C23.9491 19.8631 24.2403 19.9201 24.2782 19.9327C24.6264 19.9771 24.9809 19.9707 25.3291 19.9391H25.3355C25.3988 19.9264 25.4684 19.9137 25.5317 19.9011C25.7026 19.8694 25.8672 19.8314 26.0318 19.7808C26.2154 19.7302 26.399 19.6669 26.5762 19.5972C26.5889 19.5909 26.5952 19.5909 26.6079 19.5846C26.6839 19.5529 26.7535 19.5212 26.8295 19.4833C27.1143 19.344 27.3929 19.1921 27.6651 19.0211C27.8424 18.9135 28.0196 18.7932 28.1905 18.673L28.4438 18.483C28.4818 18.4577 28.5387 18.4134 28.5514 18.4007C28.6084 18.3438 28.6716 18.2931 28.7349 18.2425L28.735 18.2425C28.8616 18.1412 28.9755 18.0336 29.0958 17.9259C29.52 17.5398 29.9251 17.1283 30.305 16.6978C30.4695 16.508 30.6277 16.3181 30.7859 16.1283L30.7861 16.1281C30.8304 16.0774 30.8684 16.0204 30.9127 15.9698L30.9127 15.9698C30.9254 15.9571 30.9317 15.9508 30.9443 15.9318C31.033 15.8115 31.1279 15.6849 31.2102 15.5583Z" fill="#333333" fill-opacity="0.5"/>
<path d="M16.988 30.2689C25.1448 30.2689 31.7572 23.6565 31.7572 15.4997C31.7572 7.34288 25.1448 0.730469 16.988 0.730469C8.83117 0.730469 2.21875 7.34288 2.21875 15.4997C2.21875 23.6565 8.83117 30.2689 16.988 30.2689Z" fill="white"/>
<path fill-rule="evenodd" clip-rule="evenodd" d="M31.1232 19.8207C29.2754 25.8694 23.6495 30.2689 16.9961 30.2689C10.3171 30.2689 4.67359 25.8355 2.84787 19.751C3.57483 20.4128 4.36324 20.999 5.19283 21.4711C6.75015 22.3573 8.49739 22.7878 10.2763 22.4903C11.9729 22.2054 13.4796 21.1862 14.6127 19.9201C15.5623 18.8629 16.3157 17.6601 16.9614 16.4003C18.2971 19.0908 20.1583 21.6547 23.0641 22.4713C26.059 23.3133 28.9479 21.8249 31.1232 19.8207ZM31.7589 15.0598C31.5492 15.1769 31.3643 15.347 31.2242 15.5583C31.1514 15.6703 31.0687 15.7823 30.9892 15.8899L30.9583 15.9318C30.9456 15.9508 30.9393 15.9571 30.9267 15.9698L30.9266 15.9698C30.9045 15.9951 30.8839 16.022 30.8633 16.0489C30.8428 16.0758 30.8222 16.1027 30.8 16.1281L30.7998 16.1283C30.6416 16.3181 30.4834 16.508 30.3189 16.6978C29.9391 17.1283 29.5339 17.5398 29.1098 17.9259C29.0805 17.9522 29.0515 17.9784 29.0227 18.0046L29.0226 18.0046C28.9331 18.0857 28.8446 18.1659 28.7489 18.2425L28.7489 18.2425L28.7489 18.2425C28.6856 18.2931 28.6223 18.3438 28.5653 18.4007C28.5527 18.4134 28.4957 18.4577 28.4577 18.483L28.2045 18.673C28.0336 18.7932 27.8563 18.9135 27.6791 19.0211C27.4068 19.1921 27.1283 19.344 26.8434 19.4833C26.7675 19.5212 26.6978 19.5529 26.6218 19.5846C26.6155 19.5877 26.6108 19.5893 26.606 19.5909C26.6013 19.5925 26.5965 19.5941 26.5902 19.5972C26.4129 19.6669 26.2294 19.7302 26.0458 19.7808C25.8812 19.8314 25.7166 19.8694 25.5457 19.9011C25.514 19.9074 25.4808 19.9137 25.4475 19.9201C25.4315 19.9231 25.4155 19.9262 25.3997 19.9292C25.3827 19.9325 25.3658 19.9358 25.3494 19.9391H25.3431C24.9949 19.9707 24.6404 19.9771 24.2922 19.9327C24.2542 19.9201 23.963 19.8631 23.925 19.8568C23.7586 19.8166 23.5974 19.7608 23.432 19.7036L23.3806 19.6858L23.3541 19.6783L23.354 19.6783C23.3257 19.6704 23.3082 19.6655 23.2983 19.6605C23.2944 19.6586 23.2893 19.6554 23.2822 19.651C23.2664 19.6412 23.2407 19.6254 23.197 19.6035L23.1969 19.6035C23.0387 19.5212 22.8805 19.4389 22.7285 19.344C22.6083 19.268 22.488 19.1857 22.374 19.1034C22.3614 19.0908 22.1335 18.9072 22.0955 18.8819C21.8043 18.6223 21.5321 18.3438 21.2725 18.0526C20.0444 16.6472 19.0505 14.5707 18.3098 12.6969C18.1769 12.2284 17.778 11.8169 17.3286 11.6967C17.3032 11.6882 17.2779 11.6854 17.2526 11.6826C17.2399 11.6812 17.2273 11.6798 17.2146 11.6777C17.1956 11.6745 17.1782 11.6713 17.1608 11.6682C17.1434 11.665 17.126 11.6618 17.107 11.6587C17.0563 11.6523 16.9994 11.6523 16.9487 11.6523C16.9107 11.6523 16.8728 11.6523 16.8348 11.6587L16.8196 11.6606L16.8195 11.6606C16.7729 11.6663 16.7221 11.6726 16.6765 11.684C16.6639 11.6872 16.6496 11.6887 16.6354 11.6903L16.6354 11.6903L16.6353 11.6903C16.6211 11.6919 16.6069 11.6935 16.5942 11.6967C16.5847 11.6998 16.5768 11.703 16.5689 11.7061L16.5689 11.7062C16.561 11.7093 16.5531 11.7125 16.5436 11.7156L16.5435 11.7157C16.5246 11.722 16.5056 11.7283 16.4866 11.741C16.0878 11.8929 15.7396 12.2727 15.6193 12.6969C15.2521 13.6212 14.847 14.5264 14.3722 15.4064C13.9923 16.1154 13.4289 17.0333 13.0301 17.5334C12.8085 17.812 12.5743 18.0779 12.3211 18.3311L12.3211 18.3311C12.1944 18.4577 12.0678 18.5843 11.9286 18.6983C11.8969 18.7267 11.8637 18.7552 11.8305 18.7837L11.8304 18.7837C11.7972 18.8122 11.764 18.8407 11.7323 18.8692C11.7133 18.8882 11.7007 18.9009 11.688 18.9072C11.6854 18.9098 11.6828 18.9113 11.6797 18.9131L11.6797 18.9131C11.6753 18.9157 11.6701 18.9188 11.6627 18.9262C11.3968 19.1161 11.1246 19.287 10.8397 19.439C10.8142 19.4535 10.7614 19.4765 10.7116 19.4982L10.7115 19.4982C10.6747 19.5142 10.6396 19.5295 10.6181 19.5402C10.4156 19.6162 10.213 19.6858 10.0104 19.7365C9.99537 19.7398 9.96934 19.7454 9.93786 19.7521L9.93776 19.7521C9.84991 19.7708 9.7198 19.7985 9.66855 19.8125L9.6204 19.8187L9.62035 19.8187C9.5744 19.8248 9.52405 19.8314 9.51029 19.8314L9.51025 19.8314L9.51017 19.8315C9.42158 19.8378 9.33299 19.8441 9.2444 19.8441C9.11097 19.8489 8.98112 19.8429 8.85217 19.8369H8.85213C8.80979 19.835 8.76754 19.833 8.7253 19.8314C8.70947 19.8314 8.69364 19.8299 8.67782 19.8283C8.66199 19.8267 8.64616 19.8251 8.63034 19.8251C8.64814 19.8251 8.57779 19.8151 8.50832 19.8052C8.45432 19.7975 8.40085 19.7899 8.38977 19.7871C8.07324 19.7238 7.76938 19.6289 7.46551 19.5276C7.44652 19.5212 7.37688 19.4959 7.33257 19.4769C7.28825 19.4579 7.21862 19.4263 7.20596 19.42L7.20591 19.4199C7.03499 19.3376 6.86409 19.2554 6.69318 19.1604C6.39564 18.9958 6.11076 18.8186 5.83222 18.6223C5.71194 18.54 5.59799 18.4577 5.48404 18.3691C5.48193 18.367 5.47982 18.3656 5.47771 18.3642C5.47349 18.3613 5.46927 18.3585 5.46505 18.3501C5.44153 18.3305 5.41742 18.3109 5.39307 18.2911C5.33874 18.247 5.28327 18.2019 5.23081 18.1538C4.75602 17.755 4.30655 17.3182 3.8824 16.8624C3.69248 16.6535 3.50257 16.4383 3.31898 16.223L3.09108 15.9381C3.08062 15.9277 3.074 15.9191 3.06805 15.9115L3.06805 15.9115C3.06319 15.9052 3.05878 15.8995 3.05309 15.8938L3.05323 15.8941L3.04676 15.8875C2.98346 15.8115 2.97713 15.7925 2.99612 15.8179C2.90116 15.6912 2.8062 15.5646 2.71757 15.4317C2.58977 15.239 2.42411 15.0805 2.23633 14.9653C2.51761 7.05603 9.01814 0.730469 16.9961 0.730469C25.0058 0.730469 31.5263 7.10648 31.7589 15.0598ZM17.0383 10.663C18.741 10.663 20.1213 9.7674 20.1213 8.66257C20.1213 7.55775 18.741 6.66211 17.0383 6.66211C15.3356 6.66211 13.9553 7.55775 13.9553 8.66257C13.9553 9.7674 15.3356 10.663 17.0383 10.663Z" fill="#333333" fill-opacity="0.5"/>
<path d="M3.02182 15.9041C2.9965 15.8661 2.9775 15.8408 2.96484 15.8281C2.98384 15.8534 2.9965 15.8724 3.01549 15.8978C3.02182 15.8978 3.02182 15.9041 3.02182 15.9041Z" fill="#333333" fill-opacity="0.5"/>
<path d="M59.1971 6.76409C58.1842 6.16901 57.0383 5.86515 55.7975 5.86515C54.5884 5.86515 53.5122 6.13736 52.5943 6.68179C52.0372 7.01098 51.556 7.39715 51.1635 7.82762V6.85272C51.1635 6.42857 50.8217 6.08672 50.3975 6.08672H49.0238C48.5997 6.08672 48.2578 6.42857 48.2578 6.85272V25.6735C48.2578 26.0977 48.5997 26.4395 49.0238 26.4395H50.3975C50.8217 26.4395 51.1635 26.0977 51.1635 25.6735V18.349C51.5687 18.7922 52.0562 19.1783 52.6196 19.5139C53.5375 20.052 54.6074 20.3305 55.8039 20.3305C57.0447 20.3305 58.1905 20.0203 59.2097 19.4062C60.2226 18.7922 61.0329 17.9186 61.6153 16.8107C62.1914 15.7092 62.4826 14.4431 62.4826 13.0503C62.4826 11.6386 62.1914 10.3725 61.6153 9.29632C61.0203 8.21379 60.2099 7.35916 59.1971 6.76409ZM59.5073 13.0503C59.5073 14.0063 59.3173 14.8482 58.9375 15.5509C58.564 16.241 58.0575 16.7791 57.4308 17.1399C56.7978 17.5071 56.0887 17.6907 55.3291 17.6907C54.5821 17.6907 53.8857 17.5071 53.2526 17.1399C52.6259 16.7791 52.1131 16.241 51.727 15.5446C51.3408 14.8482 51.1509 14.0126 51.1509 13.0693C51.1509 12.1451 51.3471 11.3221 51.727 10.6194C52.1068 9.92304 52.6196 9.39128 53.2526 9.0241C53.8857 8.65693 54.5821 8.47334 55.3291 8.47334C56.0887 8.47334 56.7978 8.65693 57.4308 9.01144C58.0575 9.36595 58.564 9.89139 58.9375 10.5751C59.3173 11.2778 59.5073 12.1071 59.5073 13.0503ZM76.6114 7.78331C76.2252 7.35916 75.7631 6.98566 75.2123 6.6628C74.3007 6.13103 73.2182 5.85882 71.9964 5.85882C70.7556 5.85882 69.6097 6.16268 68.5969 6.75776C67.5776 7.35916 66.7736 8.20746 66.1912 9.28999C65.6152 10.3662 65.3239 11.626 65.3239 13.044C65.3239 14.4431 65.6152 15.7092 66.1912 16.8044C66.7673 17.9122 67.5713 18.7859 68.5779 19.3999C69.5844 20.014 70.7239 20.3242 71.971 20.3242C73.1802 20.3242 74.2564 20.052 75.1743 19.5075C75.7314 19.1783 76.2125 18.7922 76.605 18.349V19.5075C76.605 19.8367 76.8709 20.1026 77.2001 20.1026H78.941C79.2702 20.1026 79.5361 19.8367 79.5361 19.5075V6.67546C79.5361 6.34627 79.2702 6.08039 78.941 6.08039H77.2001C76.8709 6.08039 76.605 6.34627 76.605 6.67546V7.78331H76.6114ZM76.0416 10.6131C76.4151 11.3031 76.605 12.1324 76.605 13.0757C76.605 14.0189 76.4151 14.8482 76.0353 15.5509C75.6618 16.241 75.1553 16.7791 74.5286 17.1399C73.8955 17.5071 73.1865 17.6907 72.4269 17.6907C71.6672 17.6907 70.9645 17.5071 70.3378 17.1399C69.7174 16.7791 69.2109 16.241 68.8374 15.5509C68.4639 14.8546 68.2677 14.0126 68.2677 13.0503C68.2677 12.1071 68.4576 11.2778 68.8311 10.5878C69.2046 9.90405 69.7047 9.37861 70.3251 9.01777C70.9518 8.66326 71.6545 8.47967 72.4142 8.47967C73.1739 8.47967 73.8829 8.66326 74.5159 9.03043C75.1617 9.39128 75.6681 9.92304 76.0416 10.6131ZM97.5632 16.3489L94.6005 6.08075H91.815L88.7763 16.3489L86.1048 6.58087C86.0225 6.28333 85.7566 6.08075 85.4528 6.08075H83.8891C83.4333 6.08075 83.1041 6.52389 83.2434 6.9607L87.1557 19.4319C87.2823 19.8371 87.6558 20.1093 88.0736 20.1093H89.4537C89.8779 20.1093 90.2514 19.8308 90.378 19.4256L93.1255 10.3792L95.8793 19.4573C95.9995 19.8434 96.354 20.1093 96.7592 20.1093H98.2026C98.6014 20.1093 98.9622 19.8498 99.0762 19.4636L103.007 6.87208C103.128 6.47958 102.837 6.08075 102.425 6.08075H100.792C100.52 6.08075 100.273 6.26434 100.203 6.53023L97.5632 16.3489ZM106.773 22.6099C106.773 23.0847 106.678 23.4265 106.501 23.5975C106.317 23.7747 105.957 23.8633 105.444 23.8633H104.76C104.437 23.8633 104.171 24.1229 104.171 24.4521V25.8511C104.171 26.174 104.431 26.4399 104.76 26.4399H105.811C107.045 26.4399 108.008 26.1297 108.672 25.522C109.343 24.9016 109.685 23.9393 109.685 22.6605V6.62518C109.685 6.32765 109.445 6.08708 109.147 6.08708H107.318C107.02 6.08708 106.78 6.32765 106.78 6.62518V22.6099H106.773ZM108.242 0.902344C107.723 0.902344 107.286 1.08593 106.932 1.44677C106.583 1.80762 106.406 2.24443 106.406 2.7572C106.406 3.26998 106.583 3.71312 106.932 4.06763C107.28 4.42847 107.723 4.61206 108.242 4.61206C108.761 4.61206 109.198 4.42847 109.552 4.06763C109.901 3.70679 110.078 3.26998 110.078 2.7572C110.078 2.24443 109.901 1.80129 109.552 1.44677C109.198 1.08593 108.761 0.902344 108.242 0.902344ZM123.796 6.74546C122.726 6.16305 121.517 5.86551 120.2 5.86551C118.884 5.86551 117.674 6.16305 116.605 6.74546C115.528 7.33421 114.667 8.18884 114.047 9.29036C113.427 10.3855 113.116 11.658 113.116 13.076C113.116 14.5068 113.42 15.7855 114.022 16.8807C114.629 17.9822 115.471 18.8432 116.541 19.4383C117.605 20.0333 118.801 20.3372 120.105 20.3372C121.422 20.3372 122.644 20.0333 123.726 19.4446C124.815 18.8495 125.689 17.9886 126.328 16.8934C126.968 15.7982 127.291 14.5131 127.291 13.0824C127.291 11.6517 126.974 10.3729 126.354 9.28403C125.727 8.18251 124.872 7.33421 123.796 6.74546ZM122.175 17.1656C121.53 17.5074 120.833 17.6847 120.099 17.6847C119.365 17.6847 118.687 17.5138 118.08 17.1783C117.478 16.8491 116.991 16.3363 116.624 15.6526C116.256 14.9626 116.066 14.0889 116.066 13.0697C116.066 12.0631 116.256 11.2022 116.63 10.5122C117.003 9.82846 117.497 9.31568 118.105 8.98649C118.725 8.65097 119.415 8.48004 120.162 8.48004C120.897 8.48004 121.587 8.65097 122.213 8.98649C122.834 9.31568 123.34 9.83479 123.726 10.5185C124.119 11.2085 124.315 12.0695 124.315 13.0697C124.315 14.0763 124.113 14.9309 123.72 15.6209C123.334 16.311 122.809 16.8301 122.175 17.1656ZM140.175 13.7534C140.175 15.0512 139.865 16.0451 139.244 16.7035C138.624 17.3682 137.795 17.6847 136.7 17.6847C135.636 17.6847 134.832 17.3745 134.231 16.7351C133.629 16.1021 133.325 15.1588 133.325 13.9433V6.53656C133.325 6.28333 133.123 6.08075 132.87 6.08075H130.901C130.647 6.08075 130.445 6.28333 130.445 6.53656V14.2345C130.445 15.5196 130.698 16.6338 131.205 17.5391C131.717 18.457 132.42 19.1534 133.306 19.6155C134.18 20.0713 135.174 20.2992 136.263 20.2992C137.219 20.2992 138.111 20.0966 138.915 19.6915C139.396 19.4509 139.814 19.1471 140.175 18.7862V19.5079C140.175 19.8371 140.441 20.103 140.77 20.103H142.486C142.815 20.103 143.081 19.8371 143.081 19.5079V6.68216C143.081 6.35297 142.815 6.08708 142.486 6.08708H140.77C140.441 6.08708 140.175 6.35297 140.175 6.68216V13.7534ZM150.857 6.51756C150.42 6.77079 150.04 7.08732 149.718 7.46082V6.42894C149.718 6.23902 149.559 6.08075 149.369 6.08075H147.154C146.964 6.08075 146.805 6.23902 146.805 6.42894V19.7611C146.805 19.951 146.964 20.1093 147.154 20.1093H149.369C149.559 20.1093 149.718 19.951 149.718 19.7611V12.5126C149.718 11.2655 150.002 10.3222 150.553 9.72083C151.104 9.12576 151.952 8.82189 153.092 8.82189H153.674C153.864 8.82189 154.022 8.66363 154.022 8.47371V6.18837C154.022 5.99846 153.864 5.84019 153.674 5.84019C152.573 5.84019 151.629 6.06809 150.857 6.51756ZM163.24 5.84019C162.145 5.84019 161.195 6.06809 160.423 6.51756C159.986 6.77079 159.606 7.08732 159.283 7.46082V6.42894C159.283 6.23902 159.125 6.08075 158.935 6.08075H156.719C156.529 6.08075 156.371 6.23902 156.371 6.42894V19.7611C156.371 19.951 156.529 20.1093 156.719 20.1093H158.935C159.125 20.1093 159.283 19.951 159.283 19.7611V12.5126C159.283 11.2655 159.568 10.3222 160.119 9.72083C160.669 9.12576 161.518 8.82189 162.657 8.82189H163.24C163.43 8.82189 163.588 8.66363 163.588 8.47371V6.18837C163.588 5.99213 163.43 5.84019 163.24 5.84019Z" fill="#333333" fill-opacity="0.5"/>
</g>
<defs>
<clipPath id="clip0_157_271">
<rect width="164.308" height="29.5385" fill="white" transform="translate(0.205078 0.730469)"/>
</clipPath>
</defs>
</svg>
