<svg width="165" height="35" viewBox="0 0 165 35" fill="none" xmlns="http://www.w3.org/2000/svg">
<g clip-path="url(#clip0_157_246)">
<mask id="mask0_157_246" style="mask-type:luminance" maskUnits="userSpaceOnUse" x="0" y="0" width="165" height="35">
<path d="M164.212 0H0.878906V35H164.212V0Z" fill="white"/>
</mask>
<g mask="url(#mask0_157_246)">
<path fill-rule="evenodd" clip-rule="evenodd" d="M10.1701 22.4142C10.5596 22.1081 11.116 22.1499 11.4499 22.5255L15.3308 27.241C15.4421 27.3523 15.6368 27.3662 15.7481 27.241L32.1344 13.2334C32.524 12.9274 33.0803 12.9692 33.4141 13.3447L35.7372 16.1824C36.071 16.5718 36.0153 17.1561 35.6259 17.49L15.5395 34.6969C15.15 35.003 14.5936 34.9473 14.2598 34.5718L7.33244 26.0865C6.98468 25.7248 6.99858 25.1407 7.36025 24.779L7.40198 24.7511L10.1701 22.4142Z" fill="#333333" fill-opacity="0.5"/>
<path fill-rule="evenodd" clip-rule="evenodd" d="M3.41136 21.3849C3.7313 21.7605 4.30162 21.8022 4.69111 21.4962L21.0774 7.53032C21.1887 7.40512 21.3834 7.41903 21.4947 7.53032L25.3757 12.232C25.6956 12.6075 26.2659 12.6632 26.6554 12.3571L29.4236 9.97852L29.4652 9.93679C29.8409 9.60295 29.8687 9.01872 29.5349 8.62922L22.5658 0.143972C22.2459 -0.231605 21.6755 -0.287246 21.2861 0.0187793L1.19963 17.2396C0.810145 17.5735 0.754504 18.1577 1.08835 18.5472L3.41136 21.3849Z" fill="#333333" fill-opacity="0.5"/>
<path fill-rule="evenodd" clip-rule="evenodd" d="M16.2257 21.6498C16.5457 22.0254 17.116 22.0671 17.5055 21.7611L22.847 17.2125C23.2365 16.8786 23.2782 16.3083 22.9583 15.9187L20.6352 13.0811C20.3153 12.7055 19.745 12.6637 19.3555 12.9698L14.0279 17.5185C13.6384 17.8523 13.5967 18.4226 13.9166 18.8121L16.2397 21.6498H16.2257Z" fill="#333333" fill-opacity="0.5"/>
<path d="M57.0077 26.4899L54.8099 23.8609C54.1978 24.0139 53.5719 24.0834 52.946 24.0834C51.5827 24.0834 50.3448 23.7635 49.2041 23.1236C48.0635 22.4838 47.1732 21.6074 46.5055 20.4806C45.8378 19.354 45.5039 18.0743 45.5039 16.6554C45.5039 15.2365 45.8378 13.9706 46.5055 12.844C47.1732 11.7172 48.0635 10.8409 49.2041 10.201C50.3448 9.56115 51.5827 9.24121 52.946 9.24121C54.3091 9.24121 55.561 9.56115 56.6878 10.201C57.8145 10.8409 58.7047 11.7172 59.3585 12.844C60.0123 13.9706 60.3461 15.2365 60.3461 16.6554C60.3461 17.9351 60.068 19.1175 59.5255 20.1746C58.983 21.2319 58.2318 22.0943 57.2998 22.7619L60.6244 26.5038H57.0077V26.4899ZM49.0649 19.2009C49.4406 19.9381 49.9552 20.4946 50.6368 20.898C51.3185 21.3014 52.0834 21.4822 52.946 21.4822C53.8084 21.4822 54.5873 21.2875 55.255 20.898C55.9227 20.5085 56.4374 19.9381 56.813 19.2009C57.1885 18.4637 57.3694 17.6152 57.3694 16.6554C57.3694 15.6956 57.1885 14.8332 56.813 14.1098C56.4374 13.3865 55.9227 12.8301 55.255 12.4406C54.5873 12.0511 53.8222 11.8563 52.946 11.8563C52.0696 11.8563 51.3045 12.0511 50.6368 12.4406C49.9691 12.8301 49.4406 13.3865 49.0649 14.1098C48.6894 14.8332 48.5085 15.6817 48.5085 16.6554C48.5085 17.6291 48.6894 18.4776 49.0649 19.2009Z" fill="#333333" fill-opacity="0.5"/>
<path d="M66.7998 9.47656V18.4348C66.7998 19.4223 67.0502 20.1736 67.5649 20.6882C68.0795 21.2029 68.8028 21.4672 69.7209 21.4672C70.6391 21.4672 71.3902 21.2029 71.9049 20.6882C72.4195 20.1736 72.6699 19.4223 72.6699 18.4348V9.47656H75.5911V18.4209C75.5911 19.6588 75.3267 20.6882 74.7982 21.5507C74.2696 22.3992 73.5463 23.039 72.656 23.4703C71.7657 23.9015 70.7781 24.1101 69.6792 24.1101C68.5804 24.1101 67.6205 23.9015 66.7441 23.4703C65.8679 23.039 65.1723 22.3992 64.6576 21.5507C64.1429 20.7022 63.8926 19.6588 63.8926 18.4209V9.47656H66.7998Z" fill="#333333" fill-opacity="0.5"/>
<path d="M87.275 21.217H81.5023L80.5425 23.9713H77.4961L82.6985 9.46289H86.0788L91.2812 23.9713H88.207L87.2472 21.217H87.275ZM86.4821 18.8941L84.3816 12.8292L82.2813 18.8941H86.4682H86.4821Z" fill="#333333" fill-opacity="0.5"/>
<path d="M103.732 10.3668C104.886 10.965 105.777 11.8135 106.403 12.9123C107.029 14.0113 107.349 15.2911 107.349 16.7377C107.349 18.1844 107.029 19.4641 106.403 20.5491C105.777 21.6341 104.886 22.4687 103.732 23.0669C102.577 23.665 101.242 23.9572 99.7118 23.9572H94.6484V9.47656H99.7118C101.228 9.47656 102.577 9.76867 103.732 10.3668ZM103.148 20.2431C103.982 19.4085 104.386 18.24 104.386 16.7377C104.386 15.2354 103.968 14.053 103.148 13.2045C102.313 12.356 101.145 11.9248 99.6144 11.9248H97.5557V21.495H99.6144C101.131 21.495 102.313 21.0777 103.148 20.2431Z" fill="#333333" fill-opacity="0.5"/>
<path d="M118.394 23.9581L115.194 18.3105H113.831V23.9581H110.924V9.47754H116.363C117.489 9.47754 118.436 9.67228 119.228 10.0757C120.021 10.4652 120.606 11.0077 121.008 11.6754C121.412 12.343 121.607 13.0941 121.607 13.9288C121.607 14.8886 121.329 15.7511 120.773 16.5161C120.216 17.2812 119.395 17.8098 118.31 18.1019L121.774 23.972H118.408L118.394 23.9581ZM113.831 16.1405H116.265C117.058 16.1405 117.642 15.9458 118.032 15.5703C118.422 15.1946 118.617 14.6661 118.617 13.9844C118.617 13.3029 118.422 12.8021 118.032 12.4405C117.642 12.0788 117.058 11.884 116.265 11.884H113.831V16.1405Z" fill="#333333" fill-opacity="0.5"/>
<path d="M134.502 21.218H128.729L127.769 23.9723H124.723L129.939 9.46387H133.319L138.522 23.9723H135.448L134.488 21.218H134.502ZM133.708 18.895L131.608 12.8301L129.507 18.895H133.694H133.708Z" fill="#333333" fill-opacity="0.5"/>
<path d="M149.846 9.4768V11.8277H145.978V23.9713H143.071V11.8137H139.219V9.46289H149.846V9.4768Z" fill="#333333" fill-opacity="0.5"/>
<path d="M160.222 21.217H154.45L153.49 23.9713H150.443L155.66 9.46289H159.039L164.242 23.9713H161.167L160.208 21.217H160.222ZM159.429 18.8941L157.329 12.8292L155.228 18.8941H159.415H159.429Z" fill="#333333" fill-opacity="0.5"/>
</g>
</g>
<defs>
<clipPath id="clip0_157_246">
<rect width="163.333" height="35" fill="white" transform="translate(0.875)"/>
</clipPath>
</defs>
</svg>
