<svg width="133" height="49" viewBox="0 0 133 49" fill="none" xmlns="http://www.w3.org/2000/svg">
<g clip-path="url(#clip0_157_281)">
<path d="M28.2229 7.5H6.27587C3.23338 7.5 0.767578 9.9658 0.767578 13.0083V34.9553C0.767578 37.9977 3.23338 40.4635 6.27587 40.4635H28.2229C31.2653 40.4635 33.7312 37.9977 33.7312 34.9553V13.0083C33.7312 9.9658 31.2653 7.5 28.2229 7.5ZM27.739 32.7314C27.739 33.6925 26.9601 34.4714 25.999 34.4714H8.49973C7.5386 34.4714 6.75975 33.6925 6.75975 32.7314V15.2321C6.75975 14.271 7.5386 13.4922 8.49973 13.4922H25.999C26.9601 13.4922 27.739 14.271 27.739 15.2321V32.7314ZM13.7528 28.456C13.1993 28.456 12.7552 28.0086 12.7552 27.4551V20.4687C12.7552 19.9152 13.1993 19.4644 13.7528 19.4644H20.7492C21.2994 19.4644 21.7468 19.9119 21.7468 20.4687V27.4518C21.7468 28.0053 21.2994 28.4527 20.7492 28.4527H13.7528V28.456ZM42.4708 27.9788H46.0701C46.2491 30.017 47.6311 31.6079 50.4184 31.6079C52.9074 31.6079 54.4386 30.3783 54.4386 28.519C54.4386 26.779 53.2389 26.0001 51.078 25.4898L48.2874 24.8899C45.2581 24.2303 42.9779 22.2816 42.9779 19.0999C42.9779 15.5901 46.0966 13.1906 50.1467 13.1906C54.4353 13.1906 57.1961 15.4409 57.4347 18.7685H53.9547C53.5405 17.2108 52.2479 16.2828 50.15 16.2828C47.9294 16.2828 46.4015 17.4825 46.4015 19.0137C46.4015 20.5449 47.7206 21.4729 50.0008 21.9833L52.7616 22.5832C55.7908 23.2427 57.8589 25.0722 57.8589 28.2804C57.8589 32.3602 54.7999 34.7895 50.4217 34.7895C45.5001 34.7862 42.7724 32.1183 42.4708 27.9788ZM70.7348 40.4635V34.4946L70.9701 31.8763H70.7348C69.9096 33.7588 68.1762 34.7895 65.8231 34.7895C62.0283 34.7895 59.2045 31.7007 59.2045 26.9646C59.2045 22.2285 62.0283 19.1397 65.8231 19.1397C68.1464 19.1397 69.7936 20.2267 70.7348 21.9336H70.9701V19.4313H74.0888V40.4635H70.7348ZM70.8508 26.9613C70.8508 23.9321 68.9981 22.1656 66.7312 22.1656C64.4642 22.1656 62.6116 23.9321 62.6116 26.9613C62.6116 29.9905 64.4642 31.757 66.7312 31.757C68.9981 31.757 70.8508 29.9938 70.8508 26.9613ZM76.5778 28.5223V19.4313H79.9319V28.2273C79.9319 30.6103 81.0786 31.757 82.9909 31.757C85.344 31.757 86.8752 30.08 86.8752 27.4617V19.4313H90.2292V34.4913H87.1105V31.3726H86.8752C86.1395 33.3744 84.5221 34.7862 82.0232 34.7862C78.4305 34.7862 76.5778 32.4928 76.5778 28.5223ZM92.2708 30.2855C92.2708 27.4617 94.2428 25.8146 97.7427 25.6091L101.889 25.3439V24.1674C101.889 22.7555 100.858 21.9037 99.0352 21.9037C97.3582 21.9037 96.3573 22.7555 96.0922 23.9619H92.7381C93.0928 20.9028 95.6215 19.1363 99.0319 19.1363C102.886 19.1363 105.24 20.7835 105.24 23.9619V34.4913H102.121V31.6973H101.885C101.18 33.55 99.708 34.7862 96.8843 34.7862C94.1832 34.7862 92.2708 32.9634 92.2708 30.2855ZM101.892 28.4328V27.6374L98.5083 27.8727C96.6854 27.9887 95.8602 28.6681 95.8602 30.0203C95.8602 31.1671 96.8014 31.9923 98.1238 31.9923C100.51 31.9923 101.892 30.4644 101.892 28.4328ZM107.742 34.4946V19.4313H110.86V22.3147H111.096C111.537 20.3427 113.038 19.4313 115.272 19.4313H116.803V22.4605H114.891C112.713 22.4605 111.096 23.8724 111.096 26.5503V34.4913H107.742V34.4946ZM132.148 27.581H120.704C120.879 30.3451 122.822 31.9061 124.969 31.9061C126.792 31.9061 127.939 31.1704 128.588 29.9342H131.913C131.001 32.9932 128.323 34.7862 124.939 34.7862C120.498 34.7862 117.38 31.462 117.38 26.9613C117.38 22.4605 120.585 19.1363 124.969 19.1363C129.381 19.1363 132.264 22.1656 132.264 25.9305C132.267 26.6696 132.208 27.0508 132.148 27.581ZM128.943 25.2578C128.827 23.1698 127.09 21.7579 124.973 21.7579C122.971 21.7579 121.297 23.024 120.883 25.2578H128.943Z" fill="#333333" fill-opacity="0.5"/>
</g>
<defs>
<clipPath id="clip0_157_281">
<rect width="132" height="48" fill="white" transform="translate(0.511719 0.5)"/>
</clipPath>
</defs>
</svg>
