<svg width="85" height="16" viewBox="0 0 85 16" fill="none" xmlns="http://www.w3.org/2000/svg">
<path d="M7.96101 1.61141C8.13388 1.24598 8.22031 1.06327 8.33764 1.00489C8.43973 0.954099 8.55834 0.954099 8.66043 1.00489C8.77776 1.06327 8.8642 1.24598 9.03706 1.61141L10.6771 5.07834C10.7281 5.18623 10.7536 5.24017 10.7909 5.28205C10.8239 5.31913 10.8635 5.34918 10.9075 5.37052C10.9572 5.39463 11.0142 5.40333 11.1283 5.42073L14.7968 5.98024C15.1831 6.03916 15.3762 6.06862 15.4656 6.16707C15.5434 6.25273 15.58 6.37044 15.5652 6.48742C15.5481 6.62188 15.4083 6.764 15.1286 7.04825L12.4751 9.74515C12.3924 9.82922 12.351 9.87125 12.3243 9.92127C12.3007 9.96555 12.2856 10.0142 12.2797 10.0645C12.2731 10.1213 12.2829 10.1807 12.3024 10.2995L12.9285 14.1087C12.9945 14.5105 13.0275 14.7114 12.9655 14.8306C12.9115 14.9343 12.8155 15.0071 12.7043 15.0286C12.5765 15.0533 12.4036 14.9584 12.0579 14.7687L8.77831 12.969C8.67612 12.913 8.62503 12.8849 8.57121 12.8739C8.52355 12.8642 8.47453 12.8642 8.42687 12.8739C8.37304 12.8849 8.32195 12.913 8.21977 12.969L4.94022 14.7687C4.59446 14.9584 4.42158 15.0533 4.29375 15.0286C4.18253 15.0071 4.08657 14.9343 4.03258 14.8306C3.97052 14.7114 4.00354 14.5105 4.06958 14.1087L4.69569 10.2995C4.71521 10.1807 4.72497 10.1213 4.71836 10.0645C4.71252 10.0142 4.69736 9.96555 4.67373 9.92127C4.64704 9.87125 4.60568 9.82922 4.52296 9.74514L1.86944 7.04825C1.58977 6.764 1.44993 6.62188 1.43292 6.48742C1.41811 6.37044 1.45469 6.25273 1.53246 6.16707C1.62185 6.06862 1.815 6.03916 2.20131 5.98024L5.86976 5.42073C5.98384 5.40333 6.04088 5.39463 6.09056 5.37052C6.13455 5.34918 6.17414 5.31913 6.20716 5.28205C6.24445 5.24017 6.26997 5.18623 6.321 5.07834L7.96101 1.61141Z" fill="#FFD647"/>
<path d="M24.961 1.61141C25.1339 1.24598 25.2203 1.06327 25.3376 1.00489C25.4397 0.954099 25.5583 0.954099 25.6604 1.00489C25.7778 1.06327 25.8642 1.24598 26.0371 1.61141L27.6771 5.07834C27.7281 5.18623 27.7536 5.24017 27.7909 5.28205C27.8239 5.31913 27.8635 5.34918 27.9075 5.37052C27.9572 5.39463 28.0142 5.40333 28.1283 5.42073L31.7968 5.98024C32.1831 6.03916 32.3762 6.06862 32.4656 6.16707C32.5434 6.25273 32.58 6.37044 32.5652 6.48742C32.5481 6.62188 32.4083 6.764 32.1286 7.04825L29.4751 9.74515C29.3924 9.82922 29.351 9.87125 29.3243 9.92127C29.3007 9.96555 29.2856 10.0142 29.2797 10.0645C29.2731 10.1213 29.2829 10.1807 29.3024 10.2995L29.9285 14.1087C29.9945 14.5105 30.0275 14.7114 29.9655 14.8306C29.9115 14.9343 29.8155 15.0071 29.7043 15.0286C29.5765 15.0533 29.4036 14.9584 29.0579 14.7687L25.7783 12.969C25.6761 12.913 25.625 12.8849 25.5712 12.8739C25.5235 12.8642 25.4745 12.8642 25.4269 12.8739C25.373 12.8849 25.3219 12.913 25.2198 12.969L21.9402 14.7687C21.5945 14.9584 21.4216 15.0533 21.2938 15.0286C21.1825 15.0071 21.0866 14.9343 21.0326 14.8306C20.9705 14.7114 21.0035 14.5105 21.0696 14.1087L21.6957 10.2995C21.7152 10.1807 21.725 10.1213 21.7184 10.0645C21.7125 10.0142 21.6974 9.96555 21.6737 9.92127C21.647 9.87125 21.6057 9.82922 21.523 9.74514L18.8694 7.04825C18.5898 6.764 18.4499 6.62188 18.4329 6.48742C18.4181 6.37044 18.4547 6.25273 18.5325 6.16707C18.6218 6.06862 18.815 6.03916 19.2013 5.98024L22.8698 5.42073C22.9838 5.40333 23.0409 5.39463 23.0906 5.37052C23.1345 5.34918 23.1741 5.31913 23.2072 5.28205C23.2445 5.24017 23.27 5.18623 23.321 5.07834L24.961 1.61141Z" fill="#FFD647"/>
<path d="M41.961 1.61141C42.1339 1.24598 42.2203 1.06327 42.3376 1.00489C42.4397 0.954099 42.5583 0.954099 42.6604 1.00489C42.7778 1.06327 42.8642 1.24598 43.0371 1.61141L44.6771 5.07834C44.7281 5.18623 44.7536 5.24017 44.7909 5.28205C44.8239 5.31913 44.8635 5.34918 44.9075 5.37052C44.9572 5.39463 45.0142 5.40333 45.1283 5.42073L48.7968 5.98024C49.1831 6.03916 49.3762 6.06862 49.4656 6.16707C49.5434 6.25273 49.58 6.37044 49.5652 6.48742C49.5481 6.62188 49.4083 6.764 49.1286 7.04825L46.4751 9.74515C46.3924 9.82922 46.351 9.87125 46.3243 9.92127C46.3007 9.96555 46.2856 10.0142 46.2797 10.0645C46.2731 10.1213 46.2829 10.1807 46.3024 10.2995L46.9285 14.1087C46.9945 14.5105 47.0275 14.7114 46.9655 14.8306C46.9115 14.9343 46.8155 15.0071 46.7043 15.0286C46.5765 15.0533 46.4036 14.9584 46.0579 14.7687L42.7783 12.969C42.6761 12.913 42.625 12.8849 42.5712 12.8739C42.5235 12.8642 42.4745 12.8642 42.4269 12.8739C42.373 12.8849 42.3219 12.913 42.2198 12.969L38.9402 14.7687C38.5945 14.9584 38.4216 15.0533 38.2938 15.0286C38.1825 15.0071 38.0866 14.9343 38.0326 14.8306C37.9705 14.7114 38.0035 14.5105 38.0696 14.1087L38.6957 10.2995C38.7152 10.1807 38.725 10.1213 38.7184 10.0645C38.7125 10.0142 38.6974 9.96555 38.6737 9.92127C38.647 9.87125 38.6057 9.82922 38.523 9.74514L35.8694 7.04825C35.5898 6.764 35.4499 6.62188 35.4329 6.48742C35.4181 6.37044 35.4547 6.25273 35.5325 6.16707C35.6218 6.06862 35.815 6.03916 36.2013 5.98024L39.8698 5.42073C39.9838 5.40333 40.0409 5.39463 40.0906 5.37052C40.1345 5.34918 40.1741 5.31913 40.2072 5.28205C40.2445 5.24017 40.27 5.18623 40.321 5.07834L41.961 1.61141Z" fill="#FFD647"/>
<path d="M58.961 1.61141C59.1339 1.24598 59.2203 1.06327 59.3376 1.00489C59.4397 0.954099 59.5583 0.954099 59.6604 1.00489C59.7778 1.06327 59.8642 1.24598 60.0371 1.61141L61.6771 5.07834C61.7281 5.18623 61.7536 5.24017 61.7909 5.28205C61.8239 5.31913 61.8635 5.34918 61.9075 5.37052C61.9572 5.39463 62.0142 5.40333 62.1283 5.42073L65.7968 5.98024C66.1831 6.03916 66.3762 6.06862 66.4656 6.16707C66.5434 6.25273 66.58 6.37044 66.5652 6.48742C66.5481 6.62188 66.4083 6.764 66.1286 7.04825L63.4751 9.74515C63.3924 9.82922 63.351 9.87125 63.3243 9.92127C63.3007 9.96555 63.2856 10.0142 63.2797 10.0645C63.2731 10.1213 63.2829 10.1807 63.3024 10.2995L63.9285 14.1087C63.9945 14.5105 64.0275 14.7114 63.9655 14.8306C63.9115 14.9343 63.8155 15.0071 63.7043 15.0286C63.5765 15.0533 63.4036 14.9584 63.0579 14.7687L59.7783 12.969C59.6761 12.913 59.625 12.8849 59.5712 12.8739C59.5235 12.8642 59.4745 12.8642 59.4269 12.8739C59.373 12.8849 59.3219 12.913 59.2198 12.969L55.9402 14.7687C55.5945 14.9584 55.4216 15.0533 55.2938 15.0286C55.1825 15.0071 55.0866 14.9343 55.0326 14.8306C54.9705 14.7114 55.0035 14.5105 55.0696 14.1087L55.6957 10.2995C55.7152 10.1807 55.725 10.1213 55.7184 10.0645C55.7125 10.0142 55.6974 9.96555 55.6737 9.92127C55.647 9.87125 55.6057 9.82922 55.523 9.74514L52.8694 7.04825C52.5898 6.764 52.4499 6.62188 52.4329 6.48742C52.4181 6.37044 52.4547 6.25273 52.5325 6.16707C52.6218 6.06862 52.815 6.03916 53.2013 5.98024L56.8698 5.42073C56.9838 5.40333 57.0409 5.39463 57.0906 5.37052C57.1345 5.34918 57.1741 5.31913 57.2072 5.28205C57.2445 5.24017 57.27 5.18623 57.321 5.07834L58.961 1.61141Z" fill="#FFD647"/>
<path d="M75.961 1.61141C76.1339 1.24598 76.2203 1.06327 76.3376 1.00489C76.4397 0.954099 76.5583 0.954099 76.6604 1.00489C76.7778 1.06327 76.8642 1.24598 77.0371 1.61141L78.6771 5.07834C78.7281 5.18623 78.7536 5.24017 78.7909 5.28205C78.8239 5.31913 78.8635 5.34918 78.9075 5.37052C78.9572 5.39463 79.0142 5.40333 79.1283 5.42073L82.7968 5.98024C83.1831 6.03916 83.3762 6.06862 83.4656 6.16707C83.5434 6.25273 83.58 6.37044 83.5652 6.48742C83.5481 6.62188 83.4083 6.764 83.1286 7.04825L80.4751 9.74515C80.3924 9.82922 80.351 9.87125 80.3243 9.92127C80.3007 9.96555 80.2856 10.0142 80.2797 10.0645C80.2731 10.1213 80.2829 10.1807 80.3024 10.2995L80.9285 14.1087C80.9945 14.5105 81.0275 14.7114 80.9655 14.8306C80.9115 14.9343 80.8155 15.0071 80.7043 15.0286C80.5765 15.0533 80.4036 14.9584 80.0579 14.7687L76.7783 12.969C76.6761 12.913 76.625 12.8849 76.5712 12.8739C76.5235 12.8642 76.4745 12.8642 76.4269 12.8739C76.373 12.8849 76.3219 12.913 76.2198 12.969L72.9402 14.7687C72.5945 14.9584 72.4216 15.0533 72.2938 15.0286C72.1825 15.0071 72.0866 14.9343 72.0326 14.8306C71.9705 14.7114 72.0035 14.5105 72.0696 14.1087L72.6957 10.2995C72.7152 10.1807 72.725 10.1213 72.7184 10.0645C72.7125 10.0142 72.6974 9.96555 72.6737 9.92127C72.647 9.87125 72.6057 9.82922 72.523 9.74514L69.8694 7.04825C69.5898 6.764 69.4499 6.62188 69.4329 6.48742C69.4181 6.37044 69.4547 6.25273 69.5325 6.16707C69.6218 6.06862 69.815 6.03916 70.2013 5.98024L73.8698 5.42073C73.9838 5.40333 74.0409 5.39463 74.0906 5.37052C74.1345 5.34918 74.1741 5.31913 74.2072 5.28205C74.2445 5.24017 74.27 5.18623 74.321 5.07834L75.961 1.61141Z" fill="#FFD647"/>
</svg>
