<svg width="26" height="26" viewBox="0 0 26 26" fill="none" xmlns="http://www.w3.org/2000/svg">
<g clip-path="url(#clip0_464_244)">
<path d="M6.26231 3.82481L3.01231 7.07481C2.85985 7.22727 2.65307 7.31292 2.43746 7.31292C2.22186 7.31292 2.01508 7.22727 1.86262 7.07481C1.71016 6.92235 1.62451 6.71557 1.62451 6.49996C1.62451 6.28436 1.71016 6.07758 1.86262 5.92512L5.11262 2.67512C5.26508 2.52266 5.47185 2.43701 5.68746 2.43701C5.90307 2.43701 6.10985 2.52266 6.26231 2.67512C6.41476 2.82758 6.50041 3.03436 6.50041 3.24996C6.50041 3.46557 6.41476 3.67235 6.26231 3.82481ZM24.1373 5.92512L20.8873 2.67512C20.7348 2.52266 20.5281 2.43701 20.3125 2.43701C20.0969 2.43701 19.8901 2.52266 19.7376 2.67512C19.5852 2.82758 19.4995 3.03436 19.4995 3.24996C19.4995 3.46557 19.5852 3.67235 19.7376 3.82481L22.9876 7.07481C23.0631 7.1503 23.1527 7.21018 23.2514 7.25103C23.35 7.29189 23.4557 7.31292 23.5625 7.31292C23.6692 7.31292 23.7749 7.29189 23.8736 7.25103C23.9722 7.21018 24.0618 7.1503 24.1373 7.07481C24.2128 6.99932 24.2727 6.9097 24.3135 6.81107C24.3544 6.71243 24.3754 6.60672 24.3754 6.49996C24.3754 6.39321 24.3544 6.28749 24.3135 6.18886C24.2727 6.09023 24.2128 6.00061 24.1373 5.92512ZM22.75 13.8125C22.75 15.7408 22.1781 17.6259 21.1068 19.2293C20.0354 20.8327 18.5127 22.0823 16.7311 22.8203C14.9495 23.5582 12.9891 23.7513 11.0978 23.3751C9.20652 22.9989 7.46923 22.0703 6.10567 20.7068C4.74211 19.3432 3.81351 17.6059 3.43731 15.7146C3.0611 13.8233 3.25418 11.8629 3.99214 10.0813C4.73009 8.29972 5.97977 6.77698 7.58315 5.70563C9.18653 4.63429 11.0716 4.06246 13 4.06246C15.5849 4.06542 18.0631 5.0936 19.891 6.92144C21.7188 8.74928 22.747 11.2275 22.75 13.8125ZM19.5 13.8125C19.5 13.597 19.4144 13.3903 19.262 13.2379C19.1096 13.0856 18.903 13 18.6875 13H13.8125V8.12496C13.8125 7.90948 13.7269 7.70281 13.5745 7.55044C13.4221 7.39807 13.2155 7.31246 13 7.31246C12.7845 7.31246 12.5778 7.39807 12.4254 7.55044C12.2731 7.70281 12.1875 7.90948 12.1875 8.12496V13.8125C12.1875 14.028 12.2731 14.2346 12.4254 14.387C12.5778 14.5394 12.7845 14.625 13 14.625H18.6875C18.903 14.625 19.1096 14.5394 19.262 14.387C19.4144 14.2346 19.5 14.028 19.5 13.8125Z" fill="#0C0C0C"/>
</g>
<defs>
<clipPath id="clip0_464_244">
<rect width="26" height="26" fill="white"/>
</clipPath>
</defs>
</svg>
